<?xml version="1.0" encoding="utf-8"?>
<!-- Generator: Adobe Illustrator 26.3.1, SVG Export Plug-In . SVG Version: 6.00 Build 0)  -->
<svg version="1.1" id="레이어_1" xmlns="http://www.w3.org/2000/svg" xmlns:xlink="http://www.w3.org/1999/xlink" x="0px"
	 y="0px" viewBox="0 0 1530.7 1530.7" style="enable-background:new 0 0 1530.7 1530.7;" xml:space="preserve">
<style type="text/css">
	.st0{fill:#EDEDED;stroke:#6167AC;stroke-width:40;stroke-linecap:round;stroke-miterlimit:10;}
	.st1{fill:#6167AC;stroke:#6167AC;stroke-width:40;stroke-linecap:round;stroke-miterlimit:10;}
</style>
<g>
	<g>
		<ellipse class="st0" cx="765.3" cy="765.3" rx="737" ry="737"/>
		<line class="st0" x1="765.3" y1="28.4" x2="765.3" y2="168.2"/>
		<line class="st0" x1="765.3" y1="1362.5" x2="765.3" y2="1502.4"/>
	</g>
</g>
<line class="st0" x1="1484" y1="765.3" x2="1344.1" y2="765.3"/>
<line class="st0" x1="191.1" y1="765.3" x2="51.2" y2="765.3"/>
<path class="st1" d="M607.9,607.2L607.9,607.2c-20.6-1.8-35.9-20-34.1-40.6l5.5-62.9c1.8-20.6,20-35.9,40.6-34.1l0,0
	c20.6,1.8,35.9,20,34.1,40.6l-5.5,62.9C646.7,593.7,628.6,609,607.9,607.2z"/>
<path class="st1" d="M853.2,607.2L853.2,607.2c-20.6-1.8-35.9-20-34.1-40.6l5.5-62.9c1.8-20.6,20-35.9,40.6-34.1l0,0
	c20.6,1.8,35.9,20,34.1,40.6l-5.5,62.9C892,593.7,873.9,609,853.2,607.2z"/>
</svg>
