<?xml version="1.0" encoding="utf-8"?>
<!-- Generator: Adobe Illustrator 26.3.1, SVG Export Plug-In . SVG Version: 6.00 Build 0)  -->
<svg version="1.1" id="레이어_1" xmlns="http://www.w3.org/2000/svg" xmlns:xlink="http://www.w3.org/1999/xlink" x="0px"
	 y="0px" viewBox="0 0 1530.71 1870.87" style="enable-background:new 0 0 1530.71 1870.87;" xml:space="preserve">
<style type="text/css">
	.st0{fill:none;stroke:#000000;stroke-width:40;stroke-linecap:round;stroke-linejoin:round;stroke-miterlimit:10;}
	.st1{fill:#5963A3;stroke:#000000;stroke-width:40;stroke-miterlimit:10;}
	.st2{fill:#474F87;stroke:#000000;stroke-width:40;stroke-miterlimit:10;}
	.st3{fill:#FFFFFF;stroke:#000000;stroke-width:40;stroke-miterlimit:10;}
	.st4{stroke:#000000;stroke-width:30;stroke-miterlimit:10;}
	.st5{fill:none;stroke:#000000;stroke-width:40;stroke-linecap:round;stroke-miterlimit:10;}
	.st6{stroke:#000000;}
	.st7{fill:#5F67B2;stroke:#000000;stroke-width:40;stroke-linecap:round;stroke-linejoin:round;stroke-miterlimit:10;}
	.st8{fill:#5963A3;stroke:#000000;stroke-width:40;stroke-linecap:round;stroke-linejoin:round;stroke-miterlimit:10;}
</style>
<g>
	<line class="st0" x1="170.39" y1="981.14" x2="31.02" y2="981.14"/>
	<ellipse class="st1" cx="824.26" cy="272.3" rx="233.38" ry="233.42"/>
	<path class="st2" d="M977.87,552.7L444.83,379.57c-62.89-20.43-97.32-87.97-76.9-150.86l0.01-0.03
		c20.42-62.9,87.98-97.33,150.88-76.9l533.04,173.13c62.89,20.43,97.32,87.97,76.9,150.86l-0.01,0.03
		C1108.33,538.7,1040.77,573.13,977.87,552.7z"/>
	<ellipse class="st3" cx="765.52" cy="999.4" rx="734.17" ry="734.28"/>
	<path class="st4" d="M606.14,845.07L606.14,845.07c-20.54-1.79-35.74-19.9-33.95-40.44l5.47-62.69
		c1.79-20.54,19.9-35.74,40.44-33.95l0,0c20.54,1.79,35.74,19.9,33.95,40.44l-5.47,62.69C644.79,831.66,626.68,846.86,606.14,845.07
		z"/>
	<path class="st4" d="M850.49,845.07L850.49,845.07c-20.54-1.79-35.74-19.9-33.95-40.44l5.47-62.69
		c1.79-20.54,19.9-35.74,40.44-33.95l0,0c20.54,1.79,35.74,19.9,33.95,40.44l-5.47,62.69C889.13,831.66,871.03,846.86,850.49,845.07
		z"/>
	<g>
		<line class="st5" x1="467.78" y1="1086.61" x2="713.98" y2="905.53"/>
		<line class="st5" x1="477.66" y1="996.07" x2="467.78" y2="1086.61"/>
		<line class="st5" x1="557.53" y1="1101.56" x2="467.7" y2="1086.61"/>
		<line class="st5" x1="1057.11" y1="1156.59" x2="715.38" y2="905.24"/>
		<line class="st5" x1="1043.41" y1="1030.92" x2="1057.11" y2="1156.59"/>
		<line class="st5" x1="932.54" y1="1177.35" x2="1057.22" y2="1156.59"/>
	</g>
	<line class="st0" x1="764.87" y1="272.3" x2="764.87" y2="411.68"/>
	<line class="st0" x1="1478.51" y1="999.4" x2="1339.15" y2="999.4"/>
	<g>
		<path class="st6" d="M735.41,129.26c6.38,2.07,11.53,6.52,14.46,12.1c2.79,5.65,3.4,12.67,1.06,19.89
			c-2.68,8.27-7.55,13.63-13.82,16.22c-6.38,2.55-13.86,2.44-21.81-0.14c-7.43-2.41-13.55-7.06-16.94-13.72
			c-3.5-6.69-4.43-15.2-1.17-25.25c3.26-10.04,9.36-18.13,16.89-24.59c7.5-6.36,16.19-11.05,24.62-14.21
			c2.53-1.03,4.41-0.42,5.54,1.8l5.89,11.05c1.34,2.63,1.64,4.93-1.83,6c-7.81,2.67-13.66,5.39-18.71,9.89
			C731.65,128.38,733.63,128.68,735.41,129.26z M725.42,145.79c-3.66-1.19-7.06,0.37-8.38,4.45c-1.22,3.77,0.51,7.34,4.17,8.53
			c3.77,1.22,7.16-0.68,8.38-4.45C730.81,150.55,729.18,147.01,725.42,145.79z"/>
		<path class="st6" d="M802.95,118.57c18.73,6.08,25.02,23.74,16.83,48.96c-4.08,12.56-10.02,21.61-17.22,26.68
			c-7.3,5.03-15.88,6.18-25.2,3.15c-18.52-6.01-24.74-23.54-16.48-48.96C769.07,123.18,784.43,112.56,802.95,118.57z M784.03,177.2
			c5.33,1.73,9.4-4,13.64-17.08c4.11-12.66,3.92-18.85-1.41-20.59c-5.34-1.73-9.12,3.17-13.24,15.83
			C778.78,168.44,778.69,175.47,784.03,177.2z"/>
	</g>
	<line class="st5" x1="685.78" y1="705.28" x2="546.12" y2="705.28"/>
	<line class="st5" x1="815.53" y1="671.23" x2="947.95" y2="747.68"/>
	<g>
		<path class="st7" d="M34.47,1118.99c0,0,242.95,226.43,726.57,219.42c0,0,460.97,6.29,735.53-223.9l-39.61,694.47
			c-0.74,12.91-11.33,23-24.14,23H106.13c-13.24,0-24.21-10.35-25.11-23.68L34.47,1118.99z"/>
		<path class="st0" d="M49.76,1272.4c0,0,215.36,165.82,691.99,170.36c0,0,374.98,22.71,743.17-195.35"/>
		<path class="st8" d="M749.61,1421.38l-91.04-28.21c-14.85-4.6-29.92,6.5-29.92,22.05v56.42c0,15.55,15.06,26.65,29.92,22.05
			l91.04-28.21C771.28,1458.77,771.28,1428.1,749.61,1421.38z"/>
		<path class="st8" d="M777.29,1421.38l91.04-28.21c14.85-4.6,29.92,6.5,29.92,22.05v56.42c0,15.55-15.06,26.65-29.92,22.05
			l-91.04-28.21C755.62,1458.77,755.62,1428.1,777.29,1421.38z"/>
	</g>
	<line class="st0" x1="190.58" y1="999.4" x2="51.22" y2="999.4"/>
</g>
</svg>
