<?xml version="1.0" encoding="utf-8"?>
<!-- Generator: Adobe Illustrator 26.3.1, SVG Export Plug-In . SVG Version: 6.00 Build 0)  -->
<svg version="1.1" id="레이어_1" xmlns="http://www.w3.org/2000/svg" xmlns:xlink="http://www.w3.org/1999/xlink" x="0px"
	 y="0px" viewBox="0 0 1530.71 1870.87" style="enable-background:new 0 0 1530.71 1870.87;" xml:space="preserve">
<style type="text/css">
	.st0{fill:none;stroke:#000000;stroke-width:40;stroke-linecap:round;stroke-linejoin:round;stroke-miterlimit:10;}
	.st1{fill:#5963A3;stroke:#000000;stroke-width:40;stroke-miterlimit:10;}
	.st2{fill:#474F87;stroke:#000000;stroke-width:40;stroke-miterlimit:10;}
	.st3{fill:#FFFFFF;stroke:#000000;stroke-width:40;stroke-miterlimit:10;}
	.st4{stroke:#000000;stroke-width:30;stroke-miterlimit:10;}
	.st5{fill:none;stroke:#000000;stroke-width:40;stroke-linecap:round;stroke-miterlimit:10;}
	.st6{fill:#5963A3;stroke:#000000;stroke-width:40;stroke-linecap:round;stroke-linejoin:round;stroke-miterlimit:10;}
	.st7{stroke:#000000;}
	.st8{fill:#5F67B2;stroke:#000000;stroke-width:40;stroke-linecap:round;stroke-linejoin:round;stroke-miterlimit:10;}
</style>
<g>
	<line class="st0" x1="1476.63" y1="981.14" x2="1337.27" y2="981.14"/>
	<line class="st0" x1="169.64" y1="981.14" x2="30.27" y2="981.14"/>
	<ellipse class="st1" cx="823.84" cy="268.76" rx="233.38" ry="233.42"/>
	<path class="st2" d="M977.45,549.16L444.42,376.03c-62.89-20.43-97.32-87.97-76.9-150.86l0.01-0.03
		c20.42-62.9,87.98-97.33,150.88-76.9l533.04,173.13c62.89,20.43,97.32,87.97,76.9,150.86l-0.01,0.03
		C1107.9,535.16,1040.35,569.59,977.45,549.16z"/>
	<ellipse class="st3" cx="766.26" cy="1003.04" rx="734.17" ry="734.28"/>
	<path class="st4" d="M605.72,841.53L605.72,841.53c-20.54-1.79-35.74-19.9-33.95-40.44l5.47-62.69
		c1.79-20.54,19.9-35.74,40.44-33.95l0,0c20.54,1.79,35.74,19.9,33.95,40.44l-5.47,62.69C644.37,828.12,626.26,843.33,605.72,841.53
		z"/>
	<path class="st4" d="M850.07,841.53L850.07,841.53c-20.54-1.79-35.74-19.9-33.95-40.44l5.47-62.69
		c1.79-20.54,19.9-35.74,40.44-33.95l0,0c20.54,1.79,35.74,19.9,33.95,40.44l-5.47,62.69C888.71,828.12,870.61,843.33,850.07,841.53
		z"/>
	<line class="st5" x1="467.36" y1="992.44" x2="713.56" y2="1173.53"/>
	<line class="st5" x1="477.24" y1="1082.98" x2="467.36" y2="992.44"/>
	<line class="st5" x1="557.11" y1="977.49" x2="467.28" y2="992.44"/>
	<line class="st5" x1="1056.69" y1="922.46" x2="714.96" y2="1173.81"/>
	<line class="st5" x1="1042.98" y1="1048.13" x2="1056.69" y2="922.46"/>
	<line class="st5" x1="932.11" y1="901.7" x2="1056.8" y2="922.46"/>
	<path class="st0" d="M46.56,1284.27c0,0,215.36,165.82,691.99,170.36c0,0,374.98,22.71,743.17-195.35"/>
	<path class="st6" d="M746.41,1433.25l-91.04-28.21c-14.85-4.6-29.92,6.5-29.92,22.05v56.42c0,15.55,15.06,26.65,29.92,22.05
		l91.04-28.21C768.08,1470.64,768.08,1439.97,746.41,1433.25z"/>
	<path class="st6" d="M774.09,1433.25l91.04-28.21c14.85-4.6,29.92,6.5,29.92,22.05v56.42c0,15.55-15.06,26.65-29.92,22.05
		l-91.04-28.21C752.42,1470.64,752.42,1439.97,774.09,1433.25z"/>
	<line class="st0" x1="764.44" y1="268.76" x2="764.44" y2="408.14"/>
	<g>
		<path class="st7" d="M734.99,125.72c6.38,2.07,11.53,6.52,14.46,12.1c2.79,5.65,3.4,12.67,1.06,19.89
			c-2.68,8.27-7.55,13.63-13.82,16.22c-6.38,2.55-13.86,2.44-21.81-0.14c-7.43-2.41-13.55-7.06-16.94-13.72
			c-3.5-6.69-4.43-15.2-1.17-25.25c3.26-10.04,9.36-18.13,16.89-24.59c7.5-6.36,16.19-11.05,24.62-14.21
			c2.53-1.03,4.41-0.42,5.54,1.8l5.89,11.05c1.34,2.63,1.64,4.93-1.83,6c-7.81,2.67-13.66,5.39-18.71,9.89
			C731.23,124.84,733.21,125.14,734.99,125.72z M724.99,142.25c-3.66-1.19-7.06,0.37-8.38,4.45c-1.22,3.77,0.51,7.34,4.17,8.53
			c3.77,1.22,7.16-0.68,8.38-4.45C730.39,147.01,728.76,143.47,724.99,142.25z"/>
		<path class="st7" d="M802.53,115.03c18.73,6.08,25.02,23.74,16.83,48.96c-4.08,12.56-10.02,21.61-17.22,26.68
			c-7.3,5.03-15.88,6.18-25.2,3.15c-18.52-6.01-24.74-23.54-16.48-48.96C768.65,119.64,784.01,109.02,802.53,115.03z M783.61,173.66
			c5.33,1.73,9.4-4,13.64-17.08c4.11-12.66,3.92-18.85-1.41-20.59c-5.34-1.73-9.12,3.17-13.24,15.83
			C778.36,164.9,778.27,171.93,783.61,173.66z"/>
	</g>
	<g>
		<path class="st8" d="M33.39,1122.54c0,0,242.95,226.43,726.57,219.42c0,0,460.97,6.29,735.53-223.9l-39.61,694.47
			c-0.74,12.91-11.33,23-24.14,23H105.05c-13.24,0-24.21-10.35-25.11-23.68L33.39,1122.54z"/>
		<path class="st0" d="M48.68,1275.95c0,0,215.36,165.82,691.99,170.36c0,0,374.98,22.71,743.17-195.35"/>
		<path class="st6" d="M748.53,1424.93l-91.04-28.21c-14.85-4.6-29.92,6.5-29.92,22.05v56.42c0,15.55,15.06,26.65,29.92,22.05
			l91.04-28.21C770.2,1462.32,770.2,1431.65,748.53,1424.93z"/>
		<path class="st6" d="M776.21,1424.93l91.04-28.21c14.85-4.6,29.92,6.5,29.92,22.05v56.42c0,15.55-15.06,26.65-29.92,22.05
			l-91.04-28.21C754.54,1462.32,754.54,1431.65,776.21,1424.93z"/>
	</g>
	<line class="st0" x1="1478.43" y1="997.2" x2="1339.07" y2="997.2"/>
	<line class="st0" x1="190.5" y1="997.2" x2="51.14" y2="997.2"/>
</g>
</svg>
