<svg width="22" height="21" viewBox="0 0 22 21" fill="none" xmlns="http://www.w3.org/2000/svg">
<path d="M20.9372 1.00851L20.9379 1.00811C20.9464 1.0034 20.9521 1.00173 20.9555 1.00099C20.9591 1.00019 20.9632 0.999802 20.9681 1.0001C20.9762 1.00059 20.9856 1.00294 20.9945 1.00699L17.9082 18.6773C17.9069 18.6782 17.9052 18.6792 17.9033 18.6802C17.8946 18.6848 17.8843 18.6877 17.8743 18.6883C17.8657 18.6888 17.8569 18.6877 17.8465 18.6835L17.8437 18.6824L12.4893 16.5419L11.8261 16.2768L11.3602 16.818L8.63138 19.9879L8.6303 19.9891C8.62737 19.9925 8.62533 19.9944 8.62433 19.9952L8.62249 19.9966C8.62228 19.9967 8.62092 19.9976 8.61727 19.9984C8.60784 20.0007 8.58976 20.0013 8.5701 19.9947C8.56734 19.9937 8.56495 19.9928 8.56288 19.9919V17.0622L18.6718 5.30942C18.6723 5.30887 18.6728 5.30833 18.6732 5.30778C18.8961 5.04896 19.0094 4.7113 18.9694 4.36164C18.9317 4.03319 18.768 3.76681 18.5715 3.58624C18.1787 3.22508 17.468 3.0712 16.9007 3.55094C16.8998 3.55174 16.8988 3.55255 16.8979 3.55335L5.0145 13.5471L1.04681 11.9586L20.9372 1.00851ZM18.1933 5.07712C18.1919 5.07827 18.1906 5.07943 18.1892 5.08057L18.1933 5.07712Z" stroke="#767676" stroke-width="2"/>
</svg>
